<?xml version="1.0" standalone="no"?>
<!DOCTYPE svg PUBLIC "-//W3C//DTD SVG 20010904//EN"
 "http://www.w3.org/TR/2001/REC-SVG-20010904/DTD/svg10.dtd">
<svg version="1.0" xmlns="http://www.w3.org/2000/svg"
 width="512.000000pt" height="512.000000pt" viewBox="0 0 512.000000 512.000000"
 preserveAspectRatio="xMidYMid meet">
<metadata>
Created by potrace 1.11, written by Peter Selinger 2001-2013
</metadata>
<g transform="translate(0.000000,512.000000) scale(0.100000,-0.100000)"
fill="#000000" stroke="none">
<path d="M2300 5090 c-30 -4 -77 -10 -105 -14 -86 -12 -297 -56 -316 -67 -11
-5 -19 -8 -19 -5 0 5 -157 -47 -263 -88 -169 -65 -415 -203 -572 -322 -467
-352 -784 -819 -938 -1379 -22 -81 -39 -152 -42 -180 -1 -5 -4 -23 -8 -40 -40
-186 -46 -569 -12 -805 34 -240 123 -523 235 -750 65 -132 92 -178 181 -310
473 -699 1274 -1120 2124 -1117 125 0 308 15 405 32 220 39 369 82 564 161
150 61 385 184 394 206 2 5 8 8 13 8 8 0 163 107 204 141 91 77 128 109 181
160 228 218 404 462 542 748 92 192 182 473 208 649 3 20 7 44 9 52 28 101 27
736 -1 781 -2 4 -6 28 -9 55 -4 26 -8 51 -10 54 -2 4 -7 22 -10 41 -36 205
-157 513 -291 739 -318 537 -813 937 -1404 1133 -72 24 -251 71 -315 82 -16 3
-70 12 -120 21 -99 17 -528 27 -625 14z"/>
</g>
</svg>
